<svg width="689" height="646" viewBox="0 0 689 646" fill="none" xmlns="http://www.w3.org/2000/svg">
<g filter="url(#filter0_d_32_3)">
<path fill-rule="evenodd" clip-rule="evenodd" d="M383.863 0.40578C322.132 2.12082 264.877 22.2152 215.847 59.3662C167.799 95.7728 139.754 139.427 105.197 231.586L89.544 273.338L46.3322 309.086C22.1378 329.101 2.20502 348.808 1.03736 353.868C-2.3371 368.494 7.72638 391.81 22.9526 404.641C36.9324 416.419 37.0645 416.938 33.0254 444.651C30.7719 460.095 27.279 479.746 25.2562 488.318C22.254 501.029 23.6783 506.974 32.9745 520.543C43.2115 535.483 43.6814 538.198 37.6081 547.238C20.2495 573.068 23.3142 605.351 44.7412 622.378C74.8901 646.34 132.369 652.666 159.42 634.999C193.285 612.879 209.699 566.971 252.48 374.709C287.502 217.319 290.421 209.923 328.208 182.912C401.501 130.506 504.355 170.676 525.163 259.829C528.925 275.934 528.401 287.678 522.867 311.483C516.543 338.686 513.718 344.295 498.777 359.339C466.172 392.162 417.322 398.071 377.924 373.96C330.411 344.886 316.42 279.602 349.398 240.84C395.099 187.124 483.879 230.39 468.011 298.648C464.144 315.281 461.4 319.087 448.554 325.632C427.486 336.367 407.989 331.196 395.819 311.653C383.911 292.528 388.571 273.5 404.265 277.148C411.557 278.843 414.254 282.354 414.279 290.19C414.308 298.634 416.863 301.504 426.326 303.704C436.573 306.086 438.941 304.802 442.439 294.971C454.594 260.822 415.526 229.481 382.06 246.531C343.296 266.278 350.731 329.468 394.787 354.666C438.181 379.487 493.884 349.887 500.816 298.321C512.136 214.075 420.592 155.497 347.733 200.363C315.89 219.976 296.842 264.131 301.251 308.122C303.844 334.008 325.229 373.203 345.837 389.847C376.419 414.544 424.466 426.43 458.622 417.747C496.639 408.085 533.51 376.447 548.068 341.01C589.403 240.372 508.894 126.678 396.863 127.474C367.11 127.683 323.285 144.228 300.459 163.866C262.777 196.289 263.84 193.429 214.167 395.8C166.007 592.014 164.786 595.48 138.775 609.686C129.721 614.63 122.02 614.361 95.3469 608.161C67.6292 601.717 62.3386 599.244 58.8576 591.107C56.6171 585.872 56.6802 578.173 59.0044 573.999C61.3245 569.825 66.2214 558.381 69.8859 548.571C75.8877 532.503 75.61 529.109 67.0956 514.333C58.7428 499.839 58.5051 497.397 65.0772 493.307C76.4157 486.241 77.324 473.69 67.0656 465.79C58.6047 459.28 58.4587 457.365 65.0824 439.783C73.8794 416.429 69.8486 402.584 49.1733 385.161C41.2235 378.462 34.3317 370.179 33.8561 366.751C33.3612 363.204 50.1476 346.433 72.8393 327.796C116.781 291.708 118.506 289.062 146.962 213.967C175.989 137.356 205.157 100.224 262.169 67.298C300.147 45.3621 325.095 37.3459 368.246 33.2098C537.166 17.0265 676.669 167.499 647.273 334.178C643.23 357.099 636.68 379.801 630.479 392.412C615.534 422.788 582.838 458.877 553.981 476.852C511.822 503.113 483.551 508.856 409.026 506.299C393.711 505.773 391.742 506.926 389.188 517.911C386.527 529.356 387.404 530.434 403.341 535.378C412.685 538.274 432.429 540.422 447.219 540.149C532.171 538.583 605.014 495.405 652.565 418.437C669.586 390.888 685.271 323.547 683.816 284.284C679.891 178.353 619.013 81.1923 526.453 33.1391C488.162 13.258 426.939 -0.794836 383.863 0.40578Z" fill="white"/>
</g>
<defs>
<filter id="filter0_d_32_3" x="0.384521" y="0.33432" width="688.151" height="644.765" filterUnits="userSpaceOnUse" color-interpolation-filters="sRGB">
<feFlood flood-opacity="0" result="BackgroundImageFix"/>
<feColorMatrix in="SourceAlpha" type="matrix" values="0 0 0 0 0 0 0 0 0 0 0 0 0 0 0 0 0 0 127 0" result="hardAlpha"/>
<feOffset dx="4.62525"/>
<feComposite in2="hardAlpha" operator="out"/>
<feColorMatrix type="matrix" values="0 0 0 0 0.783333 0 0 0 0 0.566667 0 0 0 0 1 0 0 0 1 0"/>
<feBlend mode="normal" in2="BackgroundImageFix" result="effect1_dropShadow_32_3"/>
<feBlend mode="normal" in="SourceGraphic" in2="effect1_dropShadow_32_3" result="shape"/>
</filter>
</defs>
</svg>
